<?xml version="1.0" standalone="no"?>
<!DOCTYPE svg PUBLIC "-//W3C//DTD SVG 20010904//EN"
 "http://www.w3.org/TR/2001/REC-SVG-20010904/DTD/svg10.dtd">
<svg version="1.0" xmlns="http://www.w3.org/2000/svg"
 width="290.000000pt" height="132.000000pt" viewBox="0 0 290.000000 132.000000"
 preserveAspectRatio="xMidYMid meet">

<g transform="translate(0.000000,132.000000) scale(0.100000,-0.100000)"
fill="#000000" stroke="none">
<path d="M2340 1105 c0 -63 -2 -115 -4 -115 -2 0 -18 13 -36 30 -58 55 -138
64 -217 25 -71 -36 -106 -89 -111 -169 -5 -74 16 -125 72 -174 72 -63 186 -64
255 -2 18 17 34 30 37 30 2 0 4 -16 4 -35 0 -28 4 -35 20 -35 20 0 20 7 20
280 0 273 0 280 -20 280 -19 0 -20 -7 -20 -115z m-94 -94 c53 -24 86 -71 92
-131 8 -91 -34 -156 -117 -181 -53 -16 -104 -4 -148 34 -99 87 -78 226 42 282
41 19 82 18 131 -4z"/>
<path d="M1210 953 c-67 -142 -125 -264 -127 -270 -3 -8 4 -13 19 -13 20 0 31
14 68 90 l44 90 122 0 123 0 17 -40 c10 -22 21 -40 26 -40 4 0 7 -3 6 -8 -2
-4 6 -26 16 -50 15 -33 24 -42 44 -42 15 0 22 5 19 13 -18 43 -240 513 -246
520 -4 4 -63 -108 -131 -250z m178 49 c23 -53 42 -100 42 -104 0 -11 -190 -10
-190 1 0 14 92 201 99 201 3 0 25 -44 49 -98z"/>
<path d="M1640 1050 c0 -19 7 -20 105 -20 58 0 105 -2 105 -4 0 -5 -105 -176
-118 -191 -13 -17 -102 -155 -102 -160 0 -3 67 -5 148 -5 141 0 148 1 149 20
2 19 -4 20 -112 20 l-115 0 45 69 c25 38 45 74 45 80 0 6 4 11 8 11 5 0 21 21
36 48 15 26 43 71 62 100 l35 52 -146 0 c-138 0 -145 -1 -145 -20z"/>
<path d="M2824 660 c0 -157 2 -221 3 -142 2 78 2 206 0 285 -1 78 -3 14 -3
-143z"/>
</g>
</svg>
